<?xml version="1.0" encoding="UTF-8"?>
<svg id="Layer_1" xmlns="http://www.w3.org/2000/svg" version="1.1" viewBox="0 0 792.58 648.24">
  <!-- Generator: Adobe Illustrator 30.2.1, SVG Export Plug-In . SVG Version: 2.1.1 Build 1)  -->
  <path d="M127.89,511.84c10.75-.61,60.48-1.21,70.72-.06l.75,7.43-4.93,5.84c-2.69-2.25-17.41-5.6-21.62-6.36-30.74-5.59-77.65-1.54-106.81,10.86l-4.23,1.89-3.31-13.78c23.23-.94,46.24-4.47,69.44-5.8" fill="CurrentColor"/>
  <path d="M31.71,484.51c35.38.72,45.63,55.94,9.52,63.95-30.13,6.68-54.81-30.08-32.8-53.91,2.29-2.48,4.97-4.57,7.91-6.22,4.69-2.61,10.02-3.91,15.38-3.82M56.67,502.52c-13.83-25.83-54.62-14.56-52.16,15.16,1.58,19.18,21.15,28.91,37.81,19.66l4.51-3.03c9.44-7.56,16.08-19.97,9.84-31.79Z" fill="CurrentColor"/>
  <path d="M43.92,453.5c-2.74,9.69-6.52,24.77-4.87,34.79v.04s-13.87-2.87-13.87-2.87c4.78-10.06,5.6-11.2,8.86-22.19,7.81-26.32,8.08-29.63,18.82-56.19,11.09-27.44,21.24-55.4,35.34-81.49,22.13-40.95,45.01-73.84,75.21-108.95,31.37-36.46,42.02-52.23,56.66-97.5l1.56-4.73c4.93-14.58,15.35-41.18,21.51-55.83l.79-1.77,11.54,8.22c-3.46,2.07-12,14.82-14.27,18.73-5.94,10.25-10.32,21.3-14.12,32.49-9.46,28.07-12.52,42.88-28.7,69.33-14.59,23.85-33.47,45.88-49.74,69.28-19.17,27.57-50.13,74.95-64.6,104.34-9.15,18.58-21.74,45.43-29.57,63.68-4.26,9.93-7.6,20.25-10.54,30.64" fill="CurrentColor"/>
  <path d="M251.81,8.52c-26.22,9.08-23.39,46.98,3.85,52.07,24.66,4.61,37.64-22.17,24.7-41.62-6.14-9.23-17.88-14.07-28.55-10.45M294.06,25.26l-4.88,1.28,4.88-1.28c8.11,31.21-35.73,55.36-57.9,28.78-14.2-17.02-6.65-42.91,14.09-50.07,17.81-6.09,38.71,2.18,43.82,21.29Z" fill="CurrentColor"/>
  <path d="M320.48,98.31c-11.65-16.72-24.39-33.41-38.94-47.7l10.98-8.96c12.16,18.02,23.32,32.63,35.41,49.87,5.5,7.85,8.72,13.3,13.67,20.95,18.11,28.02,66.89,67.78,92.44,91.75,16.89,15.85,37.02,35.23,50.35,54.09,15.3,21.67,31.99,42.33,47.79,63.62,12.56,16.92,23.88,32.51,37.33,48.79,16.16,19.56,26.86,36.37,44.49,56.03,23.8,26.53,59.19,64.31,85.35,88.15,2.1,1.91,4.22,4.06,6.62,5.62,8.43,5.74,40.44,38.5,46.56,47.08l-12.25,7.13c-4.71-11.56-27.87-41.71-37.81-49.25-4.48-3.29-60.33-60.13-68.07-67.75-20.08-19.8-34.33-32.65-53.07-53.76-10.51-11.83-17.49-18.99-28.34-30.12-17.44-17.88-57.85-66.23-73.12-86.54l8.3-6.23-8.3,6.23-12.38-17.31c-24.33-35.88-82.51-88.81-113.48-124.47-8.31-9.56-16.59-19.49-22.85-30.55-3.24-5.75-6.92-11.26-10.69-16.67" fill="CurrentColor"/>
  <path d="M789.73,591.26c4.52,21.92-9.47,43-30.89,43l-.05-14.52c28.66-.17,35.73-30.85,14.9-44.9-20.55-13.87-46.93,4.34-43.18,26.63,2.21,13.14,14.97,18.17,27.08,18.27h1.11s0,14.52,0,14.52v-14.52s.11,0,.11,0l.05,14.52c-18.24,0-29.03-16.16-30.51-33.61l-.06-.73c-2.33-31.46,38.88-45.72,56.73-19.72,2.29,3.34,3.89,7.11,4.73,11.06" fill="CurrentColor"/>
  <path d="M639.37,648.09c-3.83.82-6.99-3.39-6.86-7.3.12-3.91,3.51-7.84,7.3-6.86l-.44,14.17.44-14.16c13.59,4.37,35.16,1.9,49.01-1.17,15.17-3.36,30.77-8,42.27-19,2.85-2.69,7.76-.12,9.42,3.43,1.76,3.78.67,8.89-4.16,9.51-16.11,2.05-35.61,8.83-53.15,12.51l-42.05,8.53-1.78.34Z" fill="CurrentColor"/>
  <path d="M261.72,239.36l-5.23.52-3.66.52-3.66.52-2.61.52-1.57.52-2.09.52-2.09.52-2.09.52-1.57.52-1.57.52-1.57.52-2.09.52-1.57.52-1.05.52-1.57.52-1.05.52-1.05.52-1.05.52-1.05.52-1.57.52-1.05.52-1.05.52-1.05.52-.52.52-1.57.52-.52.52-1.05.52-1.05.52-1.04.52-1.05.52-.52.52-.52.52-1.05.52-1.05.52-.52.52-.52.52-1.05.52-.52.52-1.05.52-.52.52-.52.52-1.05.52-.52.52-.52.52-1.04.52-.52.52-.52.52-.52.52-.52.52-.52.52-1.04.52-.52.52-.52.52-.52.52-.52.52-.52.52-.52.52-.52.52-.52.52-.52.52-.52.52-.52.52-.52.52-.52.52-.52.52-.52.52-.52.52-.52,1.05-.52.52-.52,1.05-1.04.52-.52.52-.52,1.05-.52.52-.52,1.04-.52.52-.52,1.05-1.05,1.05-.52.52-.52.52-.52,1.04-.52,1.05-.52.52-.52,1.05-.52,1.04-.52.52-.52.52-.52,1.05-.52,1.05-.52,1.05-.52.52-.52.52-.52,1.57-.52,1.05-.52,1.05-.52.52-.52,1.57-.52,1.05-1.04,2.09-.52,1.57-.52,1.05-.52,1.57-.52.52-.52,1.57-.52,1.05-.52,2.09-.52,1.05-.52,1.05-.52,2.09-.52,2.09-.52,2.09-.52,2.09-.52,2.09-.52,2.09-.52,2.09-.52,3.14-.52,2.61-.52,2.61-.52,7.32v6.27l.52.52h.52l1.57-.52,1.57-.52.52-.52,1.05-.52,1.57-.52,2.09-.52,1.57-.52,1.57-.52,1.57-.52,2.61-.52h2.09l.52.52.52.52v1.05l-.52,1.05-.52.52-.52.52-1.05.52-.52.52-1.05.52-.52.52-1.04.52-1.05.52-1.05.52-.52.52-.52.52-1.05.52-1.05.52-1.57.52-.52.52-.52.52-1.05.52-1.05.52-.52.52-.52.52-1.04.52-1.05.52-1.05.52-.52.52-1.05.52-.52.52-1.05.52-1.05.52-.52.52-1.05.52-1.05.52-.52.52-1.05.52-.52.52-1.57.52-.52.52-.52.52-1.05.52-1.04.52-.52.52-1.05.52-.52.52-1.05.52-1.05.52-.52.52-.52.52-1.05.52-1.04.52-.52.52-1.05.52-.52.52-.52.52-1.04.52-.52.52-.52.52-1.05.52-1.05.52-.52.52-1.05.52-.52.52-1.05.52-.52.52-.52.52-.52.52-1.05.52-.52.52-.52.52-1.04.52-.52.52-1.05.52-.52.52-.52.52-.52.52-.52.52-1.04.52-.52.52-.52.52-.52.52-.52.52-.52.52-.52.52-.52,1.04-1.05.52-.52,1.05-.52.52-.52.52-.52.52-.52,1.05-.52,1.57-.52,2.61-.52,4.18-.52.52-.52.52-.52.52-.52.52-.52,1.04-.52.52-.52.52-.52.52-.52,1.04-.52.52-.52,1.05-.52,1.05v6.27l.52,1.57.52,1.05,1.05.52.52.52.52,1.05.52.52.52.52.52,1.04.52,4.18.52,2.61.52.52.52,1.04.52,1.05.52.52.52.52.52,1.05,1.05.52.52.52,1.05.52.52.52.52.52,1.04.52,1.05.52,1.57.52,1.05.52,2.61.52,4.18.52h11.5l3.66.52,3.14.52,3.14.52,1.57.52,1.57.52.52.52,1.57.52,2.09.52,1.05.52,1.57.52,1.05.52,1.05.52,1.04.52,1.57.52,1.57.52,1.57.52,2.09.52,1.57.52,1.57.52,1.57.52,2.09.52,2.09.52,2.09.52,2.61.52,2.61.52,2.09.52,5.23.52,7.32.52h9.41l5.23-.52,4.7-.52,2.61-.52h4.18l.52.52v1.57l-.52.52-.52.52-.52.52-.52.52-.52.52-1.04.52-1.05.52-.52.52-1.57.52-2.09.52-1.05.52-1.04.52-1.05.52-2.09.52-2.61.52-2.09.52-2.09.52-3.14.52-4.18.52-.52.52-.52.52-.52,1.57-.52,3.66-.52,6.79-.52,7.32v25.09h.52v3.85c65.78,14.89,122.93,56.36,199.06,76.88,76.13,20.52,172.79,52.58,243.62,45.49v-2.35h.52v-26.13h-.52v-3.66h-.52v-3.14h-.52v-4.7h-.52v-2.61h-.52v-2.09h-.52v-1.04h-.52v-2.09h-.52v-2.09h-.52v-1.57h-.52v-1.05h-.52v-1.57h-.52v-2.09h-.52v-1.05h-.52v-1.57h-.52v-1.05h-.52v-1.57h-.52v-1.05h-.52v-1.05h-.52v-1.57h-.52v-1.05h-.52v-1.05h-.52v-1.05h-.52v-.52h-.52v-1.05h-.52v-1.05h-.52v-.52h-.52v-1.05h-.52v-1.04h-.52v-1.05h-.52v-1.05h-.52v-.52h-.52v-1.05h-.52v-.52h-.52v-.52h-.52v-1.05h-.52v-.52h-.52v-.52h-.52v-1.05h-.52v-.52h-.52v-.52h-.52v-.52h-.52v-.52h-.52v-1.04h-.52v-.52h-.52v-.52h-.52v-.52h-.52v-.52h-.52v-.52h-.52v-1.05h-.52v-.52h-.52v-.52h-1.05v-.52h-.52v-.52h-.52v-.52h-.52v-.52h-.52v-.52h-.52v-.52h-.52v-.52h-.52v-.52h-.52v-.52h-.52v-.52h-1.05v-1.04h-.52v-.52h-1.04v-.52h-1.05v-.52h-.52v-.52h-.52v-.52h-1.05v-.52h-.52v-.52h-.52v-.52h-.52v-.52h-1.05v-.52h-.52v-.52h-1.57v-.52h-.52v-.52h-.52v-.52h-1.05v-.52h-1.05v-.52h-.52v-.52h-1.05v-.52h-1.05v-.52h-1.05v-.52h-1.04v-.52h-1.57v-.52h-.52v-.52h-1.57v-.52h-1.04v-.52h-1.57v-.52h-1.04v-.52h-1.57v-.52h-2.09v-.52h-1.05v-.52h-1.05v-.52h-1.57v-.52h-2.09v-.52h-2.09v-.52h-2.61v-.52h-2.61v-.52h-2.09v-.52h-4.18v-.52h-3.14v-.52h-4.18v-.52h-7.32v-.52h-9.41v-.52h-8.36v-.52h-6.79v-.52h-4.7v-.52h-5.23v-.52h-5.75v-.52h-6.27v-.52h-4.7v-.52h-2.09v-.52h-5.23v-.52h-5.23v-.52h-3.66v-.52h-3.14v-.52h-3.66v-.52h-3.14v-.52h-3.14v-.52h-2.09v-.52h-2.09v-.52h-4.18v-.52h-3.66v-.52h-1.57v-.52h-1.57v-.52h-2.09v-.52h-3.66v-.52h-2.61v-.52h-2.09v-.52h-1.57v-.52h-3.66v-.52h-1.57v-.52h-1.57v-.52h-1.57v-.52h-2.61v-.52h-2.09v-.52h-1.05v-.52h-1.57v-.52h-2.09v-.52h-2.09v-.52h-2.09v-.52h-1.04v-.52h-1.57v-.52h-2.09v-.52h-2.09v-.52h-1.05v-.52h-1.57v-.52h-1.57v-.52h-1.57v-.52h-1.05v-.52h-.52v-.52h-2.61v-.52h-1.57v-.52h-1.05v-.52h-1.57v-.52h-1.05v-.52h-1.57v-.52h-1.57v-.52h-1.05v-.52h-1.05v-.52h-1.05v-.52h-1.57v-.52h-1.05v-.52h-1.05v-.52h-.52v-.52h-2.09v-.52h-1.05v-.52h-1.05v-.52h-.52v-.52h-1.05v-.52h-1.57v-.52h-1.04v-.52h-1.05v-.52h-1.05v-.52h-1.05v-.52h-1.05v-.52h-.52v-.52h-1.05v-.52h-1.05v-.52h-1.05v-.52h-1.05v-.52h-.52v-.52h-1.05v-.52h-1.05v-.52h-1.05v-.52h-.52v-.52h-1.05v-.52h-1.05v-.52h-.52v-.52h-1.05v-.52h-.52v-.52h-1.05v-.52h-1.04v-.52h-.52v-.52h-.52v-.52h-1.05v-.52h-1.05v-.52h-1.05v-.52h-.52v-.52h-.52v-.52h-1.05v-.52h-1.04v-.52h-.52v-.52h-.52v-.52h-1.05v-.52h-.52v-.52h-.52v-.52h-1.05v-.52h-.52v-.52h-.52v-.52h-1.05v-.52h-.52v-.52h-.52v-.52h-1.04v-.52h-.52v-.52h-.52v-.52h-.52v-.52h-.52v-.52h-1.05v-1.05h-.52v-.52h-.52v-.52h-1.05v-.52h-.52v-.52h-.52v-.52h-.52v-.52h-1.05v-.52h-.52v-.52h-.52v-.52h-.52v-.52h-.52v-.52h-.52v-.52h-.52v-.52h-.52v-.52h-.52v-.52h-.52v-.52h-.52v-.52h-.52v-.52h-.52v-.52h-.52v-.52h-.52v-.52h-.52v-.52h-.52v-.52h-.52v-.52h-.52v-.52h-.52v-.52h-.52v-.52h-.52v-.52h-.52v-1.05h-.52v-.52h-.52v-.52h-.52v-.52h-.52v-.52h-.52v-.52h-.52v-.52h-.52v-.52h-.52v-.52h-.52v-1.05h-.52v-.52h-.52v-.52h-.52v-1.05h-.52v-1.05h-.52v-.52h-.52v-.52h-.52v-.52h-.52v-.52h-.52v-1.05h-.52v-.52h-.52v-.52h-.52v-1.05h-.52v-.52h-.52v-1.05h-.52v-.52h-.52v-.52h-.52v-1.05h-.52v-.52h-.52v-1.05h-.52v-.52h-.52v-1.05h-.52v-1.04h-.52v-.52h-.52v-.52h-.52v-1.05h-.52v-1.05h-.52v-.52h-.52v-1.05h-.52v-1.05h-.52v-1.05h-.52v-1.05h-.52v-.52h-.52v-1.05h-.52v-1.05h-.52v-1.05h-.52v-1.05h-.52v-.52h-.52v-1.57h-.52v-1.04h-.52v-1.05h-.52v-.52h-.52v-1.04h-.52v-1.05h-.52v-2.09h-.52v-.52h-.52v-1.57h-.52v-1.05h-.52v-1.05h-.52v-1.04h-.52v-2.09h.52v-1.05h.52v-.52h1.05v-.52h3.14v.52h2.09v-.52h4.18v-.52h2.09v-.52h1.57v-.52h2.09v-.52h2.09v-.52h1.57v-.52h1.04v-.52h.52v-.52h1.05v-.52h1.04v-.52h1.05v-.52h1.05v-.52h.52v-.52h1.05v-.52h1.04v-.52h.52v-.52h1.05v-.52h.52v-.52h1.05v-.52h.52v-.52h.52v-.52h1.05v-.52h1.05v-.52h1.05v-.52h1.05v-.52h1.05v-.52h1.57v-.52h1.57v-.52h2.09v-.52h3.14v-.52h11.5v.52h3.14v-.52h.52v-.52h.52v-1.57h-.52v-.52h-.52v-1.57h-.52v-1.05h-.52v-1.05h-.52v-1.05h-.52v-.52h-.52v-1.05h-.52v-.52h-.52v-.52h-.52v-1.05h-.52v-.52h-.52v-.52h-.52v-.52h-.52v-.52h-.52v-.52h-.52v-.52h-.52v-1.05h-.52v-.52h-.52v-.52h-.52v-.52h-.52v-.52h-1.05v-.52h-1.05v-.52h-.52v-.52h-1.05v-.52h-.52v-.52h-.52v-.52h-1.05v-.52h-1.05v-.52h-1.05v-.52h-1.04v-.52h-.52v-.52h-1.57v-.52h-1.05v-.52h-1.57v-.52h-2.09v-.52h-1.05v-.52h-2.09v-.52h-2.61v-.52h-3.66v-.52h-7.32v.52h-3.14v.52h-2.61v.52h-1.57v.52h-1.57v.52h-1.57v.52h-3.14v.52h-5.23v.52h-5.23v-.52h-4.18v-.52h-2.09v-.52h-1.57v-.52h-1.05v-.52h-1.57v-.52h-2.09v.52h-.52v.52h-.52v1.04h-.52v.52h-.52v.52h-.52v.52h-.52v1.04h-.52v.52h-.52v.52h-.52v.52h-.52v.52h-1.05v.52h-1.05v-.52h-.52v-3.14h.52v-1.05h.52v-1.57h.52v-1.05h.52v-1.05h.52v-1.05h.52v-1.05h.52v-1.05h.52v-.52h.52v-1.57h.52v-.52h.52v-1.05h.52v-.52h.52v-.52h.52v-.52h.52v-1.05h.52v-1.05h1.05v-1.05h.52v-.52h.52v-1.05h.52v-.52h.52v-.52h.52v-.52h.52v-.52h.52v-.52h.52v-.52h.52v-.52h.52v-.52h.52v-.52h.52v-.52h.52v-.52h.52v-.52h.52v-.52h1.05v-.52h.52v-.52h.52v-.52h.52v-.52h.52v-.52h.52v-.52h.52v-.52h1.05v-.52h1.05v-.52h.52v-.52h1.05v-.52h.52v-.52h.52v-.52h1.57v-.52h1.05v-.52h.52v-.52h1.57v-.52h1.57v-.52h.52v-.52h1.04v-.52h1.05v-.52h2.61v-.52h2.09v-.52h1.05v-.52h1.57v-.52h3.14v-.52h4.7v-.52h7.32v.52h1.57v.52h1.05v.52h.52v1.05h.52v.52h.52v1.57h.52v1.04h.52v1.57h.52v1.57h.52v1.57h.52v1.57h.52v2.09h.52v2.61h.52v3.14h.52v4.18h.52v6.27h.52v.52h1.05v-.52h.52v-.52h.52v-.52h.52v-.52h.52v-.52h.52v-1.05h.52v-1.05h.52v-.52h.52v-1.05h.52v-.52h.52v-.52h.52v-1.05h.52v-1.05h.52v-.52h.52v-1.05h.52v-1.05h.52v-1.05h.52v-1.04h.52v-1.05h.52v-1.57h.52v-1.57h.52v-1.57h.52v-1.05h.52v-1.05h.52v-.52h1.05v-.52h1.05v.52h2.09v.52h.52v.52h1.05v.52h1.05v.52h.52v1.05h1.04v.52h.52v.52h1.05v1.05h.52v.52h1.05v.52h.52v1.05h.52v.52h.52v.52h.52v.52h.52v.52h.52v1.05h.52v.52h.52v.52h.52v1.05h.52v.52h.52v1.05h.52v.52h.52v1.04h.52v1.57h.52v.52h.52v1.57h.52v1.04h.52v1.57h.52v2.09h.52v1.05h.52v1.57h.52v2.61h.52v18.29h-.52v2.61h-.52v2.09h-.52v1.57h-.52v2.09h-.52v2.09h-.52v1.05h-.52v1.57h-.52v1.05h-.52v1.04h-.52v1.05h-.52v1.05h-.52v1.05h-.52v.52h-.52v.52h-.52v.52h-.52v.52h-.52v.52h-.52v1.05h-.52v1.05h-.52v.52h-.52v.52h-.52v.52h-.52v.52h-.52v.52h-1.04v.52h-.52v.52h-.52v.52h-1.05v.52h-.52v.52h-.52v.52h-.52v.52h-1.05v.52h-1.05v.52h-1.05v.52h-.52v.52h-1.05v.52h-1.05v.52h-1.57v.52h-.52v.52h-1.57v.52h-2.09v.52h-2.09v.52h-1.57v.52h-1.57v.52h-3.14v.52h-6.79v.52h-8.88v-.52h-4.7v-.52h-4.7v-.52h-1.04v-.52h-1.05v-.52h-1.57v-.52h-2.61v.52h-.52v.52h.52v1.05h.52v.52h.52v.52h.52v1.05h.52v1.05h.52v.52h.52v.52h.52v1.05h.52v.52h.52v.52h.52v.52h.52v.52h.52v.52h.52v.52h.52v.52h.52v1.05h.52v.52h.52v.52h.52v.52h.52v.52h.52v.52h.52v.52h1.05v.52h.52v.52h.52v.52h1.05v.52h.52v.52h.52v.52h.52v.52h1.05v.52h1.05v.52h1.05v.52h.52v.52h1.05v.52h.52v.52h1.57v.52h.52v.52h1.57v.52h.52v.52h2.09v.52h1.05v.52h1.04v.52h1.57v.52h2.61v.52h1.57v.52h1.57v.52h1.57v.52h4.18v.52h16.72v-.52h4.7v-.52h2.09v-.52h2.09v-.52h2.09v-.52h2.09v-.52h1.05v-.52h1.57v-.52h1.57v-.52h1.57v-.52h1.05v-.52h1.04v-.52h1.57v-.52h1.57v-.52h1.05v-.52h.52v-.52h1.05v-.52h1.05v-.52h1.05v-.52h1.05v-.52h.52v-.52h1.05v-.52h1.05v-.52h.52v-.52h1.05v-.52h.52v-.52h1.05v-.52h1.05v-.52h.52v-.52h.52v-.52h.52v-.52h.52v-.52h.52v-.52h.52v-.52h.52v-.52h1.05v-.52h.52v-.52h.52v-.52h.52v-.52h.52v-.52h.52v-.52h.52v-.52h.52v-.52h1.05v-.52h.52v-.52h.52v-.52h.52v-1.05h.52v-.52h.52v-.52h.52v-1.05h.52v-.52h.52v-.52h.52v-.52h.52v-1.05h.52v-.52h.52v-.52h.52v-.52h.52v-1.05h.52v-.52h.52v-1.04h.52v-.52h.52v-.52h.52v-1.57h.52v-1.04h.52v-.52h.52v-1.05h.52v-1.04h.52v-1.05h.52v-.52h.52v-1.05h.52v-1.05h.52v-1.57h.52v-1.05h.52v-1.05h.52v-1.57h.52v-1.57h.52v-1.05h.52v-1.05h.52v-2.61h.52v-2.09h.52v-1.57h.52v-2.09h.52v-2.09h.52v-2.61h.52v-3.66h.52v-4.18h.52v-4.18h.52v-19.34h-.52v-3.66h-.52v-3.66h-.52v-3.66h-.52v-3.14h-.52v-1.57h-.52v-2.09h-.52v-2.09h-.52v-2.61h-.52v-1.57h-.52v-1.57h-.52v-1.05h-.52v-1.57h-.52v-1.57h-.52v-1.05h-.52v-1.05h-.52v-1.57h-.52v-1.57h-.52v-1.04h-.52v-.52h-.52v-1.57h-.52v-1.05h-.52v-1.05h-.52v-1.05h-.52v-.52h-.52v-1.05h-.52v-1.05h-.52v-1.05h-.52v-.52h-.52v-1.05h-.52v-1.05h-.52v-1.05h-.52v-.52h-.52v-.52h-.52v-1.05h-.52v-.52h-.52v-1.05h-.52v-.52h-.52v-1.05h-.52v-1.05h-.52v-.52h-1.05v-.52h-.52v-1.05h-.52v-1.05h-.52v-.52h-.52v-.52h-.52v-.52h-.52v-.52h-.52v-.52h-.52v-1.05h-.52v-.52h-.52v-.52h-.52v-.52h-.52v-.52h-.52v-.52h-.52v-.52h-.52v-.52h-.52v-.52h-1.05v-.52h-.52v-.52h-.52v-.52h-.52v-.52h-.52v-.52h-.52v-.52h-.52v-.52h-.52v-.52h-.52v-.52h-1.05v-.52h-.52v-.52h-1.04v-.52h-.52v-1.05h-.52v-.52h-1.05v-.52h-1.05v-.52h-.52v-.52h-1.05v-.52h-.52v-.52h-.52v-.52h-1.05v-.52h-.52v-.52h-1.04v-.52h-1.57v-.52h-1.04v-.52h-.52v-.52h-.52v-.52h-1.05v-.52h-1.57v-.52h-.52v-.52h-1.05v-.52h-1.05v-.52h-1.05v-.52h-1.04v-.52h-1.05v-.52h-1.05v-.52h-1.57v-.52h-1.57v-.52h-1.05v-.52h-1.57v-.52h-1.57v-.52h-1.57v-.52h-1.57v-.52h-1.57v-.52h-1.57v-.52h-2.09v-.52h-2.09v-.52h-1.57v-.52h-2.61v-.52h-3.14v-.52h-2.61v-.52h-3.14v-.52h-3.66v-.52h-7.32v-.52h-13.59v.52h-5.23v.52h-3.66v.52h-3.14v.52h-3.14v.52h-3.66v.52h-1.57v.52h-2.61v.52h-2.09v.52h-2.09v.52h-2.09v.52h-1.05v.52h-1.57v.52h-2.09v.52h-2.09v.52h-1.05v.52h-1.57v.52h-1.57v.52h-1.57v.52h-1.04v.52h-1.05v.52h-1.05v.52h-1.05v.52h-1.05v.52h-1.05v.52h-1.05v.52h-1.57v.52h-.52v.52h-1.05v.52h-.52v.52h-1.57v.52h-1.05v.52h-1.05v.52h-.52v.52h-1.05v.52h-1.05v.52h-.52v.52h-.52v.52h-1.05v.52l-1.04.52-.52.52-1.05.52-.52.52-.52.52-1.05.52-.52.52-.52.52-1.05.52-.52.52-1.04.52-.52.52-.52.52-.52.52-.52.52-.52.52-.52.52-1.05.52-.52.52-.52.52-.52.52-.52.52-1.05.52-.52.52-.52.52-.52.52h-2.09l-.52-.52v-2.09l.52-1.05.52-1.05.52-.52.52-1.05.52-1.05.52-1.05.52-.52.52-.52.52-.52c.63,0,5.67-6.72,6.79-7.84l.52-.52,1.05-.52.52-.52c.72-.72,1.38-1.38,2.09-2.09l.52-.52.52-.52,1.05-.52.52-.52.52-.52,1.04-.52.52-.52,1.05-.52.52-.52,1.05-.52.52-.52,1.04-.52,1.05-.52.52-.52,1.05-.52,1.04-.52,1.05-.52.52-.52,1.04-.52,1.05-.52,1.05-.52,1.05-.52,1.05-.52c.94-.45,1.46-.63,2.09-1.05l1.05-.52,1.04-.52,1.57-.52,1.05-.52,1.57-.52,1.05-.52,1.57-.52.6-.31c.9-.35.72-.73-.08-.73l-2.61-.52h-14.11Z" fill="CurrentColor" fill-rule="evenodd"/>
  <path d="M199.98,512.27c.75.36,260.91,127.05,439.41,121.68l.39,14.12c-181.99,5.48-444.59-122.65-445.35-123.02l5.55-12.77Z" fill="CurrentColor"/>
</svg>