<?xml version="1.0" encoding="UTF-8"?>
<svg id="Layer_1" xmlns="http://www.w3.org/2000/svg" version="1.1" viewBox="0 0 74.09 139.3">
  <!-- Generator: Adobe Illustrator 30.2.1, SVG Export Plug-In . SVG Version: 2.1.1 Build 1)  -->
  <path d="M72.51,138.3h-2.43c-.1-.05-.19-.12-.29-.14-2.25-.45-3.81-1.68-4.5-3.89-.83.51-1.68,1.05-2.54,1.56-1.57.94-3.32.99-5.06.89-.97-.05-1.93-.34-2.91-.42-1.47-.12-2.78.38-3.95,1.4-.14-1.54.2-2.88,1.08-3.99,1.17-1.45,2.8-2.05,4.66-2.02-.92-2.94-.15-4.5,1.66-5.23,1.38-.56,3.63-.05,4.05,1.36-1.72.3-2.45,2.21-1.36,3.57.71.88,2.41.91,3.32.08,2.12-1.92,1.69-6.27-1.7-7.47-1.54-.55-3.08-.52-4.67-.03-2.49.78-4.14,2.42-5.23,4.72-.44.93-.76,1.92-1.29,2.78-.71,1.15-1.72,2.03-2.99,2.57.88,1.52.1,3.81-2.11,3.53-1.48-.19-2.77-.84-3.98-1.63-1.14-.74-2.2-1.62-3.21-2.37-.04.59.03,1.24-.16,1.81-.27.8-.67,1.57-1.12,2.29-.38.59-1.09.54-1.56,0-1.07-1.2-1.31-2.64-1.24-4.16-.15.1-.34.2-.51.32-.08.05-.14.13-.2.2-1.67,1.59-3.59,2.76-5.81,3.41-.92.27-1.85.28-2.56-.46-.67-.7-.81-2-.23-2.93-.24-.14-.48-.27-.71-.41-1.69-.99-2.7-2.49-3.29-4.32-.44-1.37-1.26-2.52-2.27-3.5-1.03-1-2.3-1.62-3.71-2.01-1.95-.54-5.03-.09-6.35,1.81-1.21,1.73-1.07,4.61.56,5.94.85.69,2.59.68,3.27-.23.53-.7.41-1.44.3-2.17-.14-.92-.86-1.28-1.73-1.35.58-1.5,2.86-1.91,4.14-1.34,1.75.78,2.5,2.22,1.6,5.18,4,.48,6.42,3.04,5.64,5.98-1.52-1.34-3.27-1.62-5.18-1.13-1.29.33-2.59.28-3.89.18-.68-.05-1.39-.24-2-.54-1.15-.55-2.23-1.23-3.32-1.84-.41,1.42-1.31,2.54-2.71,3.23-.65.32-1.37.5-2.06.75H1.57c.68-.71,1.41-1.38,2.03-2.14.37-.45.69-1.03.79-1.59.13-.74.02-1.53.03-2.29.04-1.59-.02-3.19.18-4.75.14-1.08.51-2.18,1.02-3.15.69-1.31,1.82-2.3,2.98-3.23.45-.36.52-.95.14-1.43-.18-.22-.4-.41-.6-.61-.89-.93-1.23-2.11-1.27-3.33-.06-1.49.14-3,.09-4.49-.04-1.22-.52-2.26-1.79-2.74-.66-.25-1.3-.51-1.96-.77,3.11-2.38,6.93-1.24,7.87,2.41,1.06-.81,2.27-.87,3.53-.9,2.15-.05,4.53,1.23,4.84,3.8.16,1.33-.26,2.57-1.38,3.23-1.38.82-2.82.74-3.66-.35.35-.13.71-.22,1.03-.39.64-.33.85-.89.72-1.47-.17-.77-.6-1.29-1.38-1.35-.95-.07-1.93-.2-2.64.75-.54.73-.65,1.55-.65,2.39,0,1.12.56,2.62,1.59,2.88.4.1.82.15,1.22.25,2.25.56,4.59.88,6.37,2.59,1.22-.97,2.12-2.15,2.68-3.54.93-2.29.25-4.53-.49-6.78,1.92.01,3.35.77,4.43,2.27,1.28,1.78.73,3.58.11,5.42.18,0,.35.03.5,0,1.93-.47,4.26.68,4.98,2.49.2.51.37,1.06.44,1.61.21,1.58-.09,2.99-1.75,3.88-1.2.65-2.92.92-4.17-.49.45-.26.91-.48,1.32-.77.69-.48.96-1.22.75-1.99-.11-.41-.51-.93-.9-1.05-1.28-.42-2.54-.23-3.64.6-.29.22-.62.54-.67.86-.14.81-.28,1.67-.14,2.47.26,1.54,1.05,2.84,2.59,3.42,1.84.7,3.76.67,5.56-.06,1.14-.46,2.09-1.28,2.55-2.56.47-1.3.33-2.53-.17-3.76-.58-1.44-.96-2.88-.58-4.45.16-.66.26-1.33.4-2.08-1,.68-1.95.77-2.92.16-1.5-.95-1.24-2.84-.23-3.88,1.04-1.07,2.29-1.65,3.72-1.87-.38-3.18-1.26-6.3-.17-9.48-5.04.28-6.26-2.61-5.72-5.13.86.43,1.72,1,2.66,1.29.8.24,1.72.29,2.52-.22,1.03-.66,1.16-2.33.51-3.35-1.39,1.03-2.96.94-4.52.64-1.92-.37-3.8-.92-5.72-1.24-.96-.16-2.02-.09-2.98.12-1.49.32-2.6,1.3-3.53,2.5-1.28,1.65-1.98,3.47-1.42,5.57.69,2.58,2.78,3.69,5.21,2.39.88-.47,1.39-1.57,1.18-2.44-.18-.77-.95-1.36-1.94-1.42-.71-.04-1.42,0-2.12,0,.37-2.7,2.88-3.61,4.88-3.21,2.47.49,4.05,2.11,3.21,6.28.06.02.12.07.19.07,2,.1,3.37,1.05,4.1,2.94.6,1.54.61,3.19-.84,4.02-.05-.05-.12-.08-.16-.14-1.53-2.06-3.69-2.42-6.05-2.25-1.03.08-2.06.28-3.08.27-1.27,0-2.54-.09-3.79-.29-1.15-.19-2.28-.57-3.09-1.49-.88-.99-1.32-2.18-1.3-3.54-4.3,2.72-8.01.94-9.82-1.8.73,0,1.52.01,2.32,0,2.4-.04,4.25-1.31,5.77-2.96,1.22-1.33,2.12-2.95,3.18-4.43.99-1.39,2.13-2.62,3.8-3.22,1.16-.41,2.32-.68,3.56-.41.51.11,1.05.1,1.59.14-.68-2.49-.31-4.81.96-6.33.46,1.08.87,2.19,1.39,3.25.97,2.01,3.78,3.66,5.83,3.35,1.63-.24,3.08-.77,3.48-2.76.28-1.42-.17-3.16-1.45-3.78-1.42-.69-2.91-.48-3.02,1.59-.02.37,0,.73,0,1.13-1.02-.12-1.6-.74-2.14-1.37-.74-.87-1.09-1.93-1.11-3.03-.01-.72.13-1.52.47-2.14.71-1.34,2.49-1.95,4.05-1.55.86.22,1.7.46,2.61.71-.12-1.92-1.41-2.93-2.85-3.83,2.1.07,3.4-3.07,2.59-4.58-2.6,1.26-5.26,1.5-8.06.28.12.26.16.39.23.5.84,1.51,1.09,3.09.79,4.8-.34,1.95-2.51,3.63-4.47,3.33-1.97-.3-3.7-2.34-3.79-4.31.34.24.66.5,1.01.72,1.05.68,2.56.24,2.97-.93.32-.92.07-1.82-.59-2.53-1.32-1.43-3.27-1.1-4.75.05-1.16.9-1.26,2.21-1.25,3.58.02,3.06,2.24,5.04,5.18,5.14.45.02.9-.07,1.36-.1.15,1.08.02,2.03-.87,2.66-1.27.88-2.68,1.13-4.19.7-.05,1.44-.66,2.61-1.66,3.61-1.63,1.62-3.56,2.8-5.58,3.86-.76.4-1.55.85-2.12,1.46-1.38,1.47-2.56,3.1-2.68,5.24-1.44-.22-2.31-1.75-2.67-3.62-.39-2.06.58-4,2.26-4.95-.62-.87-1.34-1.69-1.85-2.62-1.37-2.49-1.1-5.16-.77-7.84.14-1.15.19-2.32.19-3.47,0-1.01-.16-2.01-.25-3.05,2.42,1.39,4.25,3.13,3.97,6.23,2.22-.53,4.21.28,5.02,1.99.54,1.12.22,2.72-.68,3.44-.1-.19-.2-.37-.3-.56-.52-1.02-1.58-1.36-2.67-1-1.57.51-1.31,2.95-.29,3.87,1.09.97,3.4.76,4.51-.17,1.1-.92,1.8-2.03,1.92-3.43.19-2.14,0-3.89-1.97-5.22-.69-.47-1.44-.85-2.2-1.3.19-.14.42-.25.55-.43.39-.56.86-1.1,1.09-1.73.37-1.02.55-2.1.85-3.15.1-.36.31-.69.48-1.06-1.2-.17-2.58.24-3.11.85-1.11,1.27-1.24,2.78-.78,4.39-2.29-.49-3.46-2.56-2.8-4.82-.68-.04-1.37-.03-2.05-.12-1.31-.18-2.28-1.01-3.28-1.77v-.29c.96-.98,2.03-1.76,3.44-1.93.62-.07,1.26-.07,1.89-.1-.71-2.24.77-4.77,2.76-4.74-.9,3.51,1.3,5.63,3.78,5.11-.38-1.14-.86-2.26-1.09-3.43-.16-.76-.14-1.54-.77-2.11-.32-.29-.66-.57-1.03-.88.23-.09.39-.14.54-.21,1.6-.71,3.05-1.61,3.54-3.44.32-1.21.34-2.44-.04-3.68-.51-1.67-1.53-2.91-3.23-3.23-1.87-.35-3.32-.02-3.75,2-.33,1.55.4,2.7,2.26,2.49,1.02-.11,1.35-.93,1.76-1.68.89.69,1.17,2.56.61,3.63-.79,1.51-2.68,2.24-4.97,1.85.26,3.1-1.57,4.83-4.06,6.24.06-.31.11-.53.14-.75.12-1.07.41-2.15.33-3.21-.17-2.3-.66-4.57-.53-6.89.09-1.7.66-3.23,1.64-4.61.36-.51.81-.97,1.27-1.5-2.5-1.64-2.86-3.94-1.87-6.53.38-.99.99-1.89,2.18-2.12.42,2.56,1.64,4.58,3.72,6,1.63,1.12,3.41,2.03,5.04,3.15,1.77,1.23,3.28,2.7,3.34,5.09,2.52-.91,5.82.79,5,3.31-.09,0-.19.02-.28,0-1.83-.43-3.4.16-4.72,1.36-1.22,1.11-1.53,2.62-1.48,4.24.05,1.53.6,2.65,1.96,3.47,1.85,1.11,4.51.21,4.71-1.88.14-1.43-.95-2.69-2.34-2.26-.62.19-1.16.61-1.71.91-.02-1.94,2.41-4.91,5.24-4.13,1.25.35,2.12,1.1,2.66,2.21.69,1.41.62,2.91.18,4.39-.2.65-.53,1.26-.82,1.93,2.77-1.23,5.45-1.03,8.08.26.4-1.04.19-2.04-.27-2.94-.47-.91-1.17-1.62-2.31-1.59.67-.58,1.34-1.09,1.9-1.69.57-.61,1-1.33.83-2.2-.9.26-1.74.53-2.59.74-1.55.39-3.77-.48-4.17-1.76-.49-1.56-.42-3.12.52-4.56.57-.88,1.25-1.61,2.43-1.81,0,.42-.03.78,0,1.13.07.68.13,1.42.84,1.74.73.33,1.51.28,2.22-.13,1.74-1.01,1.98-3.59.8-5.14-1.11-1.46-2.79-1.51-4.44-1.2-2.13.41-3.61,1.7-4.5,3.65-.42.91-.76,1.85-1.16,2.82-.75-.94-1.11-1.98-1.2-3.07-.1-1.09,0-2.2.03-3.33.01,0-.15,0-.32,0-.95.04-1.89.15-2.84.12-2.55-.08-4.26-1.62-5.55-3.6-1.24-1.91-2.4-3.84-4.17-5.34-1.4-1.18-2.95-1.97-4.8-2.05-.79-.04-1.59,0-2.32,0,1.77-2.72,5.53-4.53,9.78-1.82.01-.02.03-.03.03-.05,0-.09.01-.19.02-.28.17-1.63.65-3.11,2.24-3.87.85-.4,1.78-.65,2.69-.86,1.88-.45,3.78-.26,5.68-.04,1.03.12,2.1.1,3.12-.05,1.52-.22,2.85-.91,3.7-2.3,1.29.84,1.46,2.02,1.1,3.33-.62,2.31-2.07,3.66-4.55,3.68.89,4.36-.86,5.89-3.19,6.34-1.95.38-4.49-.46-4.91-3.3.6.04,1.2.11,1.8.13.86.02,1.58-.26,2.06-1.04.42-.69.29-1.37-.06-2-.69-1.25-2.75-1.75-3.98-1.21-1.44.64-2.09,1.91-2.28,3.39-.28,2.28.74,4.11,2.25,5.69,1.98,2.08,4.5,2.23,7.1,1.76,1.3-.23,2.55-.72,3.83-1.04,1.76-.43,3.51-.61,5.13.49.67-1.07.54-2.76-.57-3.38-1.01-.56-2.1-.41-3.11.03-.71.31-1.35.78-2.04,1.2-.11-1.26-.18-2.52.66-3.57,1.31-1.64,3.16-1.77,5.11-1.67-1.12-3.22-.21-6.36.15-9.53-1.51-.21-2.81-.83-3.83-1.99-1.36-1.56-.66-3.9,1.13-4.05.69-.06,1.4.12,2.15.2-.05.13,0,.08-.02.05-.74-2.21-.64-4.32.25-6.55.92-2.28.4-4.27-1.63-5.63-1.5-1-3.18-1.06-4.88-.91-.69.06-1.42.33-2.03.68-1.52.87-2.11,2.36-2.21,4-.06.91.06,1.97.99,2.48.73.4,1.59.64,2.42.77.49.08,1.09-.1,1.54-.34.89-.48.83-2.26-.22-2.89-.43-.26-.88-.51-1.33-.77,1.5-1.33,3.6-1.27,5,.13,1.03,1.04,1.09,2.28.87,3.65-.47,2.88-2.87,3.97-5.04,3.84-.26-.02-.52-.09-.82-.15.6,1.82,1.13,3.51.02,5.25-1.06,1.66-2.52,2.49-4.6,2.49,1.67-3.97,1.32-7.48-2.15-10.31-1.29,1.25-2.9,1.74-4.54,2.15-.92.23-1.87.37-2.8.59-.9.21-1.63.95-1.81,2.8-.22,2.28.88,3.46,3.07,3.33.94-.05,1.5-.61,1.66-1.65.08-.49-.47-1.09-1.21-1.35-.21-.07-.42-.15-.65-.23,1.53-1.31,4.1-.9,4.84.77.86,1.93-.13,4.67-2.3,5.46-2.01.73-3.98.72-5.87-.4-.43,2.13-2,3.12-3.86,3.63-1.52.41-2.85-.28-4.05-1.31.31-.07.57-.11.81-.2,1.24-.47,2.66-.88,2.85-2.44.2-1.65.12-3.32.17-4.99.02-.54.04-1.09.13-1.62.18-1.01.76-1.79,1.48-2.49.52-.5.51-1.15.07-1.55-.63-.57-1.28-1.12-1.86-1.74-.85-.91-1.65-1.85-1.88-3.14-.12-.71-.33-1.42-.36-2.13-.05-1.62-.04-3.25-.01-4.87.02-1.21-.09-2.35-1.02-3.25-.66-.63-1.33-1.25-2.12-1.99,1.78-.17,3.26-.03,4.64.69,1.37.72,2.31,1.81,2.71,3.27.95-.57,1.87-1.22,2.87-1.71,2.06-1.01,4.21-1.01,6.42-.5.78.18,1.65.2,2.42.04.96-.2,1.87-.66,2.78-.99.2,1.56-.48,2.99-1.16,3.79-1.19,1.4-2.78,1.98-4.61,1.96.94,2.92.15,4.52-1.6,5.2-1.64.64-3.71.01-4.09-1.34,1.5-.45,2.05-1.34,1.76-2.85-.25-1.29-2.39-1.84-3.6-.94-1.64,1.22-1.71,4.02-.95,5.41,1.01,1.83,2.68,2.53,4.65,2.62,1.67.08,3.2-.48,4.57-1.35,1.46-.93,2.56-2.22,3.22-3.86.61-1.53,1.17-3.09,2.54-4.14.55-.42,1.14-.78,1.71-1.17-.56-.78-.42-1.58-.13-2.34.33-.83,1.04-1.17,1.92-1.12,1.8.09,3.3.95,4.74,1.92.98.66,1.89,1.44,2.8,2.14-.19-1.33.11-2.58.8-3.67.64-1.02,1.18-1.16,1.78-.67.35.28.7.66.86,1.06.42,1.04.84,2.11.46,3.4.37-.28.64-.46.88-.68,1.7-1.6,3.63-2.82,5.88-3.41,1.32-.35,2.84-.08,2.96,1.81.03.54-.07,1.09-.12,1.71,1.54.72,2.73,1.95,3.45,3.64.3.71.5,1.47.88,2.13,1.25,2.17,3.02,3.69,5.49,4.37,2.06.57,5.04.11,6.44-1.9.97-1.39,1.03-4.59-.64-5.84-.79-.6-2.65-.65-3.29.25-.5.71-.4,1.44-.29,2.17.14.94.88,1.23,1.72,1.33-.49,1.41-2.53,1.98-4.14,1.33-1.68-.68-2.53-2.09-1.6-5.17-4.34-.1-6.03-3.24-5.7-5.93.49.3.96.63,1.47.88,1.52.72,3.07.4,4.61.07,1.77-.37,3.5-.22,5.13.52,1.14.52,2.19,1.22,3.26,1.83.59-2.59,3.56-4.42,7.19-3.9-.64.63-1.21,1.22-1.81,1.77-.61.57-1.02,1.23-1.05,2.07-.03.69.01,1.39,0,2.08-.04,1.59,0,3.18-.17,4.76-.12,1.17-.32,2.38-1.15,3.32-.93,1.06-1.91,2.07-2.9,3.07-.37.37-.48.95-.13,1.4.17.23.4.41.6.61.9.92,1.25,2.1,1.3,3.32.06,1.44-.12,2.9-.09,4.35.03,1.3.44,2.44,1.82,2.94.65.24,1.29.5,1.97.77-1.42,1.05-2.87,1.77-4.64,1.04-1.6-.66-2.91-1.58-3.24-3.44-1.31.7-1.59.89-3.66.86-2.49-.04-4.31-1.24-4.78-3.8-.22-1.2.15-2.5,1.43-3.22,1.56-.88,2.87-.67,3.61.32-.44.23-.93.4-1.32.71-.24.19-.49.61-.43.87.12.59.17,1.34.92,1.52.93.22,1.87.45,2.77-.2,1.14-.83,1.26-3.25.64-4.48-.33-.66-.76-1.14-1.47-1.28-2.6-.52-5.25-.91-7.33-2.72-3.47,2.85-3.76,6.36-2.13,10.28-2.26.06-3.79-.98-4.78-2.74-.91-1.61-.38-3.29.2-4.94-.19,0-.36-.03-.51,0-1.92.46-4.18-.63-4.94-2.43-.22-.53-.41-1.1-.48-1.66-.22-1.57.09-2.99,1.74-3.89,1.18-.64,2.91-.93,4.14.45-.55.38-1.14.72-1.65,1.16-.57.49-.54,1.22-.37,1.84.15.56.61.94,1.27.93.65-.01,1.31.09,1.93-.04.85-.16,1.65-.62,1.99-1.42.81-1.88-.12-4.55-1.71-5.55-1.7-1.07-3.55-1.06-5.42-.62-1.73.41-3.02,1.39-3.54,3.12-.35,1.15-.15,2.3.26,3.44.33.93.67,1.92.7,2.89.04,1.18-.24,2.38-.38,3.57.03-.02.11-.05.18-.1,1.19-.8,2.76-.33,3.39.78.51.9.29,2.17-.55,3.1-1,1.11-2.28,1.66-3.73,1.88.38,3.17,1.3,6.3.14,9.53,1.61-.11,3.16-.05,4.46.98,1.41,1.1,1.53,2.63,1.31,4.3-1.26-1.07-2.6-1.7-4.24-1.59-1.63.11-2.4,2.14-1.45,3.68,1.4-.96,2.96-.95,4.52-.63,1.87.38,3.7.94,5.58,1.24,1.01.16,2.11.08,3.12-.14,1.56-.34,2.75-1.36,3.67-2.66,1.14-1.6,1.79-3.34,1.28-5.35-.67-2.61-2.8-3.7-5.18-2.46-.9.47-1.41,1.49-1.23,2.41.15.78.94,1.41,1.97,1.48.71.05,1.41,0,2.11,0-.44,2.82-3.03,3.52-4.92,3.24-2.73-.4-3.71-2.46-3.19-6.37-2.1-.04-3.59-.99-4.33-3.02-.56-1.53-.59-3.12.95-3.99.07.1.16.21.24.33,1.52,1.95,3.62,2.28,5.89,2.1.98-.08,1.96-.28,2.94-.27,1.31.01,2.64.09,3.94.29,1.15.18,2.28.57,3.09,1.49.88.99,1.32,2.18,1.3,3.54,4.33-2.74,8.06-.89,9.9,1.92-.15,0-.28,0-.42,0-.9-.03-1.82-.21-2.68-.07-2.7.45-4.62,2.16-6.22,4.24-.89,1.16-1.57,2.49-2.45,3.66-2.12,2.85-4.75,3.54-7.84,2.98-.21-.04-.43-.05-.67-.08.76,2.35.36,4.44-.93,6.43-.43-1.02-.85-1.98-1.24-2.95-.87-2.15-3.76-3.96-6.01-3.75-1.95.18-2.9.95-3.47,2.81-.32,1.04.05,3.01,1.37,3.76,1.34.75,2.7.28,3.04-1.19.11-.49.07-1.01.11-1.68.56.33,1.02.54,1.41.85,1.21.97,1.73,2.32,1.77,3.82.02.67-.12,1.42-.44,2.01-.72,1.34-2.49,1.97-4.04,1.57-.86-.22-1.71-.49-2.58-.74-.13.93.32,1.67.89,2.29.55.6,1.24,1.06,1.93,1.63-2.13-.14-3.43,3.08-2.61,4.48,2.64-1.24,5.3-1.48,8.06-.22-1.09-1.92-1.48-4.17-.86-5.77.83-2.15,2.4-3.22,4.84-2.75,1.07.21,1.78,1.02,2.42,1.83.54.68.79,1.48.74,2.43-.22-.12-.31-.36-.49-.51-1.16-1.04-2.91-.7-3.44.65-.34.85.18,2.29,1.01,2.87,1.44,1.02,3.2.58,4.38-.42,1.13-.95,1.27-2.23,1.23-3.59-.07-2.7-1.55-4.39-4.01-4.97-.8-.19-1.65-.11-2.5-.16-.18-1.08-.04-1.78.67-2.36,1.29-1.05,2.75-1.39,4.38-.82.04-1.54.7-2.74,1.74-3.76,1.47-1.43,3.16-2.57,4.98-3.5,1.17-.6,2.26-1.26,3.13-2.31,1.14-1.38,2.02-2.85,2.22-4.7,1.19.33,1.84,1.15,2.23,2.23.94,2.6.54,4.84-1.91,6.45.39.43.75.78,1.05,1.17,2.16,2.78,2.1,5.95,1.63,9.2-.14.97-.28,1.95-.26,2.92.02,1.19.22,2.38.34,3.6-2.44-1.39-4.27-3.15-4-6.26-2.14.88-4.18-.51-4.85-1.65-.74-1.24-.48-2.89.54-3.76.4,1.12,1.1,1.83,2.37,1.7.85-.08,1.47-.59,1.64-1.31.21-.86-.25-2.29-.89-2.73-1.51-1.04-3.8-.68-5.11.85-1.1,1.28-1.36,2.76-1.26,4.33.08,1.2.35,2.39,1.4,3.16.88.65,1.81,1.24,2.75,1.87-.18.14-.5.3-.67.55-.35.5-.7,1.03-.9,1.6-.21.61-.19,1.29-.38,1.91-.24.77-.59,1.5-.9,2.26,1.11.23,2.54-.24,3.04-.83,1.08-1.27,1.34-2.76.78-4.43,1.22.23,1.99.91,2.57,1.82.61.96.74,1.97.17,3.08,2.21-.17,4.07.33,5.41,2.12-1.13,1.35-2.14,1.73-5.33,2.05.68,2.28-.68,4.63-2.75,4.75.85-3.79-1.34-5.52-3.8-5.15.38,1.15.88,2.29,1.12,3.49.15.75.14,1.49.74,2.05.32.3.67.58,1.04.89-.21.09-.35.15-.5.21-1.61.7-3.06,1.59-3.55,3.42-.33,1.21-.34,2.44.02,3.68.49,1.69,1.51,2.91,3.2,3.25,1.84.37,3.29.03,3.78-1.96.22-.88-.09-1.86-.67-2.23-.61-.4-1.99-.48-2.57.16-.32.36-.55.8-.82,1.2-.84-.68-1.18-2.23-.68-3.36.42-.96,1.23-1.51,2.13-1.96.94-.47,1.92-.4,2.9-.09-.22-3.34,2.01-5.22,3.87-6.07-.04,1.77-.28,3.65-.07,5.48.19,1.71.46,3.42.34,5.13-.07.96-.27,1.96-.68,2.82-.57,1.21-1.38,2.3-2.09,3.44,1.86,1.2,2.64,2.68,2.06,5.45-.3,1.44-1.25,2.95-2.47,3.03-.45-2.57-1.71-4.65-3.87-6.08-1.84-1.22-3.9-2.1-5.6-3.57-1.42-1.22-2.56-2.55-2.63-4.51-1.55.46-2.98.19-4.25-.75-.88-.65-.97-1.59-.78-2.61.13,0,.23-.02.32,0,1.8.44,3.35-.16,4.67-1.32,1.31-1.16,1.59-2.74,1.52-4.44-.06-1.64-.76-2.81-2.28-3.47-2.13-.91-3.77-.11-4.36,2.03-.35,1.26.63,2.29,1.78,2.27.78-.02,1.54-.51,2.43-.84-.39.79-.69,1.67-1.21,2.41-1.87,2.65-5.54,2.16-6.82-.58-.78-1.67-.61-3.27-.06-4.9.16-.48.42-.92.66-1.43-2.8,1.3-5.45.99-8.07-.25-.75,2.06.53,4.33,2.57,4.55-.65.54-1.35,1.02-1.9,1.63-.55.61-1.02,1.33-.88,2.07,1.35-.21,2.65-.49,3.96-.58,1.32-.1,2.8,1.09,2.99,2.38.18,1.24.19,2.5-.5,3.65-.6,1.01-1.31,1.84-2.6,2.1,0-.39.02-.72,0-1.05-.13-1.83-.92-2.27-2.62-1.85-1.16.29-1.63,1.22-1.87,2.3-.3,1.34.29,3.64,2.12,4.05.75.17,1.46.29,2.23.26,2.26-.11,4.25-1.64,5.14-3.6.44-.96.82-1.95,1.23-2.92,1.3,1.66,1.64,3.84.95,6.38.25-.04.47-.1.7-.1,1.19,0,2.4-.15,3.55.06,2.19.39,3.69,1.87,4.82,3.7,1.1,1.77,2.2,3.51,3.79,4.91,1.79,1.58,3.77,2.53,6.21,2.28.4-.04.8-.08,1.3-.13-1.2,1.66-2.65,2.74-4.58,3.15-1.99.43-3.72-.21-5.38-1.24-.1,1.73-.63,3.09-1.63,3.88-.95.74-2.09,1.03-3.28,1.25-1.89.34-3.73.22-5.61.01-1.07-.12-2.19-.07-3.26.07-1.54.2-2.83.93-3.67,2.29-1.14-.67-1.46-1.69-1.24-2.81.5-2.53,1.87-4.2,4.67-4.2-.88-4.2.79-5.9,3.2-6.35,2.04-.38,4.53.54,4.88,3.3-.6-.05-1.2-.13-1.8-.14-.95-.01-1.74.31-2.14,1.24-.32.74-.18,1.47.33,2.04,1.58,1.77,4.59,1.68,5.67-.96.73-1.79.52-3.48-.38-5.19-1.66-3.18-5.2-4.74-8.62-3.71-1,.3-2,.63-3.02.86-1.98.45-3.99.99-5.9-.35-.11.26-.25.49-.29.73-.2,1.38.02,2.6,1.44,2.91,1.09.24,2.2.08,3.18-.55.47-.3.94-.6,1.5-.96-.04.8.03,1.58-.15,2.29-.41,1.61-1.55,2.53-3.15,2.82-.84.16-1.7.16-2.55.23,1.14,3.18.19,6.31-.16,9.45,1.6.2,2.91.87,3.91,2.07.67.8.86,1.76.45,2.7-.31.7-.89,1.29-1.77,1.27-.67-.02-1.34-.15-2.02-.23.79,2.17.61,4.35-.26,6.63-.97,2.53-.22,4.27,1.75,5.58,1.22.81,2.61.94,4.04.9,2.41-.07,4.12-1.16,4.78-3.53.42-1.53.2-3.23-1.17-3.94-1.07-.55-2.19-.72-3.3-.28-.36.14-.74.63-.83,1.02-.18.76.01,1.51.75,1.98.43.27.88.51,1.32.77-1.21,1.43-3.15,1.11-4.28.42-1.54-.94-1.9-2.36-1.55-4.07.57-2.86,2.67-4.35,5.48-3.81.12.02.25-.03.39-.05-2.11-4.62,1.21-7.8,4.57-7.61-1.66,3.91-1.31,7.41,1.99,10.13,1.07-.54,2.01-1.18,3.05-1.52,1.43-.47,2.94-.68,4.39-1.11.47-.14.95-.5,1.26-.9.56-.72.67-1.59.59-2.51-.21-2.34-1.18-2.93-3.2-2.71-.81.09-1.47.83-1.52,1.65-.03.52.49,1.09,1.23,1.34.21.07.42.15.65.24-1.94,1.63-4.5.84-5.02-1.54-.49-2.23.82-4.44,3.28-4.96,1.74-.37,3.5-.41,5.07.72.74-3.6,4.92-4.85,7.85-2.38-.14.06-.28.13-.42.18-.09.03-.19,0-.28.04-1.26.45-2.6.84-2.9,2.4-.16.81-.16,1.66-.17,2.49-.02,1.1.07,2.21.03,3.3-.05,1.38-.69,2.5-1.71,3.43-.44.41-.47.95-.07,1.39.48.52,1.05.94,1.55,1.44.99.99,1.95,2.01,2.22,3.46.13.71.36,1.41.39,2.12.06,1.69.02,3.39.02,5.09,0,1.2.17,2.33,1.12,3.22.65.62,1.25,1.29,1.88,1.94" fill="#2b2a29"/>
</svg>